<?xml version="1.0" encoding="UTF-8"?><svg xmlns="http://www.w3.org/2000/svg" viewBox="0 0 417 417"><defs><style>.cls-1{fill:#a3b0c6;}.cls-1,.cls-2{stroke-width:0px;}.cls-2{fill:#fff;}</style></defs><g id="lines"><path id="lines-2" class="cls-2" d="M273.378,188.988h0s0,29.268,0,29.268h-54.146v-29.268h0c-6.932,2.521-14.531,2.521-21.463,0h0v29.268h-54.146v-29.268c-7.057,1.669-14.406,1.669-21.463,0v57.561h62.492l-5.75-11.96c-.608-1.264-.825-2.707-.481-4.067.685-2.706,3.068-4.461,5.691-4.461h48.562c1.53,0,3.054.497,4.177,1.537,1.943,1.801,2.411,4.579,1.317,6.853l-5.816,12.098h62.492v-57.561h0c-6.932,2.521-14.531,2.521-21.463,0Z"/><polygon id="left_shadow" class="cls-1" points="182.305 241.671 122.159 241.671 122.159 246.549 184.65 246.549 182.305 241.671"/><polygon id="right_shadow" class="cls-1" points="234.695 241.671 232.35 246.549 294.841 246.549 294.841 241.671 234.695 241.671"/></g><g id="triangle"><polygon id="triangle-2" class="cls-2" points="208.5 282.646 232.89 231.915 184.11 231.915 208.5 282.646"/><g id="triangle_shadow"><polygon class="cls-1" points="208.5 282.646 228.2 241.671 208.5 261.183 188.8 241.671 208.5 282.646"/></g></g><g id="circles"><circle id="right" class="cls-2" cx="284.11" cy="158.744" r="24.39"/><path id="right_shadow-2" class="cls-1" d="M261.476,167.832c3.604,8.968,12.377,15.302,22.634,15.302s19.029-6.335,22.634-15.302c-6.192,4.991-14.061,7.985-22.634,7.985s-16.442-2.994-22.634-7.985Z"/><circle id="center" class="cls-2" cx="208.5" cy="158.744" r="24.39"/><path id="center_shadow" class="cls-1" d="M185.866,167.832c3.604,8.968,12.377,15.302,22.634,15.302s19.029-6.335,22.634-15.302c-6.192,4.991-14.061,7.985-22.634,7.985s-16.442-2.994-22.634-7.985Z"/><circle id="left" class="cls-2" cx="132.89" cy="158.744" r="24.39"/><path id="left_shadow-2" class="cls-1" d="M110.257,167.832c3.604,8.968,12.377,15.302,22.634,15.302s19.029-6.335,22.634-15.302c-6.192,4.991-14.061,7.985-22.634,7.985s-16.442-2.994-22.634-7.985Z"/></g></svg>